<svg xmlns="http://www.w3.org/2000/svg" viewBox="0 0 471.28 112.97"><defs><style>.cls-1{fill:#858b99;}</style></defs><g id="Layer_2" data-name="Layer 2"><g id="Livello_1" data-name="Livello 1"><path class="cls-1" d="M470.43,5c-1.62-2.36-3.55-4-11.58-4.59-2.1-.16-9.06-.39-20.77-.39-30.76,0-51.66,9.34-62.36,27.76Q380.15,0,321.48,0q-68.9,0-86,55.48-6.36,20.64-1.34,33.83L223.26,90c-8.47.65-19.61,1.22-26.45,1.22q-25.2,0-31.27-8.46c-3.62-5.06-3.26-14.46,1-28.17,7-22.71,24.38-32.93,52.14-32.93,14.38,0,28.39,1.51,28.4,1.51h0c1.93-.12,2.78-2.13,2.57-3.79l-.28-2.18-1-7.63q-1-7.51-11.2-8.91c-6.23-.42-10.87-.7-17.7-.7h-.38q-54.41.12-75.84,35.73Q151.1,0,92.84,0,60.44,0,46.37,1.83c-7.21.9-11.59,3.89-13.18,8.94l-3.08,9.81c-.56,1.8.31,2.69,2.61,2.69l.07,0c1.71-.21,8.28-.86,19.51-1.76q22.28-1.77,33.11-1.78,32.07,0,27,16a6.15,6.15,0,0,1-4.85,4.41q-30.33,5-48.15,7.23Q9.33,53.78,1.53,78.64q-10.71,34.17,53.58,34.18,32.07,0,53.82-3.69c8.36-1.4,12.59-3.54,14.27-8.92l8-25.4c-.83,25.38,17,38.16,53.44,38.16,15.79,0,30.76-.52,37.83-1.75,7.47-1.29,11.05-2.92,12.7-8.56l1.62-8q11.64,18.18,51.13,18.17,41.63,0,48.56-2.32c3.87-1.24,6.26-3.23,7.11-6a10.35,10.35,0,0,0,.34-1.59l3.32-10.78c.58-1.88-.29-2.78-2.57-2.69l-17.76.85q-17.79,1-27.84,1c-12.62,0-21.27-.85-26-2.58q-10.53-4.05-10-16.18l56.27-7.21Q357.11,60.46,369.92,42l-19.07,66.4a3.1,3.1,0,0,0,.42,3c.72.83,1.93,1.23,3.73,1.23h23.29c4.07,0,5.52-2.1,6-3.86L404.9,37.11c2.71-9.44,11.39-14,26.52-14,13.66,0,24,.12,30.55.36l.51,0a4.92,4.92,0,0,0,4.76-3.59L470.85,10A5.28,5.28,0,0,0,470.43,5ZM95,91.26Q84.14,93,63.68,93q-35.49,0-31-14.33c2.16-6.86,8.36-11,18.66-12.37L105.16,59ZM343.89,33.19q-3.39,11-31.58,15.08l-44.85,6.36L268.59,51q5.58-18.12,15.82-24.69t33.3-6.56Q348.06,19.71,343.89,33.19Z"/></g></g></svg>