<svg xmlns="http://www.w3.org/2000/svg" viewBox="0 0 1218.76 238.31"><defs><style>.cls-1{fill:#858b99;fill-rule:evenodd;}</style></defs><g id="Layer_2" data-name="Layer 2"><g id="Layer_1-2" data-name="Layer 1"><path class="cls-1" d="M1190.17,2.21a29.4,29.4,0,0,1,14.07,3.69,26.24,26.24,0,0,1,10.68,10.59,28.67,28.67,0,0,1,.06,28.56,26.68,26.68,0,0,1-10.57,10.6,28.76,28.76,0,0,1-28.47,0,26.63,26.63,0,0,1-10.6-10.6,28.69,28.69,0,0,1-3.79-14.21,29,29,0,0,1,3.84-14.35A26.32,26.32,0,0,1,1176.1,5.9a29.37,29.37,0,0,1,14.07-3.69Zm0,4.74A24.5,24.5,0,0,0,1178.43,10a22.16,22.16,0,0,0-8.92,8.83,23.75,23.75,0,0,0-.06,23.81,22.46,22.46,0,0,0,8.85,8.84,23.81,23.81,0,0,0,23.74,0,22.26,22.26,0,0,0,8.82-8.84A24.06,24.06,0,0,0,1214,30.84a24.31,24.31,0,0,0-3.2-12,22,22,0,0,0-8.93-8.83A24.51,24.51,0,0,0,1190.17,7Zm-12.55,39.69V15.87h10.57a26,26,0,0,1,7.86.84,7.69,7.69,0,0,1,3.86,3,8,8,0,0,1,1.44,4.52,8.15,8.15,0,0,1-2.41,5.87,9.5,9.5,0,0,1-6.39,2.81,8.45,8.45,0,0,1,2.62,1.63,35.62,35.62,0,0,1,4.55,6.11l3.75,6h-6.07l-2.73-4.85q-3.21-5.72-5.19-7.16a6.34,6.34,0,0,0-4-1.06h-2.91V46.64Zm5-17.32h6c2.87,0,4.84-.44,5.89-1.29a4.42,4.42,0,0,0,.81-5.86,4.51,4.51,0,0,0-2.1-1.61,15.47,15.47,0,0,0-5-.53h-5.64v9.29Z"/><path class="cls-1" d="M638.6.33h1V66.1H573.11V.33ZM349.42,139.41l153.68,9.53a11.66,11.66,0,0,1,11.62,11.62h0a11.66,11.66,0,0,1-11.62,11.62h-219V86.56c6.73,26.44,29.89,48.06,65.34,52.85Zm-65.34,98.9H508a67.58,67.58,0,0,0,66.08-54.49c5.33,30.84,32.31,54.49,64.53,54.49H781.67a65.78,65.78,0,0,0,64.4-53.75v53.75h229.37A67.52,67.52,0,0,0,1142.76,171v-9.54a67.52,67.52,0,0,0-67.32-67.32l-12.58-.55c-71.37-3.14-142.52-6.74-213.8-10.41,5.56,28,29.16,51.25,66.12,56.24l155.37,9.53a11.66,11.66,0,0,1,11.62,11.62h0a11.66,11.66,0,0,1-11.62,11.62H847.16V83.07l-66.44-3.43v76.22a19.45,19.45,0,0,1-19.4,19.39H659a19.45,19.45,0,0,1-19.39-19.39V72.36l-66.45-3.43v75.55c-7.59-28.58-34-49.19-65.12-49.19L215.35,76.16V238.31h68.73ZM562.56,66.13V0H349.42a67.58,67.58,0,0,0-65.34,51.16V.33H156.86L113.51,66.1H282.12l280.44,0ZM187.28,74.54,82.2,238.31H0L110.86,70.12l76.42,4.42Zm955.48-8.41V0H915.18a67.53,67.53,0,0,0-67.31,66.1l294.89,0Zm-362,0V.33h66.44V66.1Z"/></g></g></svg>