<svg xmlns="http://www.w3.org/2000/svg" viewBox="0 0 1451.24 323.81"><defs><style>.cls-1{fill:#858b99;fill-rule:evenodd;}</style></defs><g id="Layer_2" data-name="Layer 2"><g id="Layer_1-2" data-name="Layer 1"><path class="cls-1" d="M1312.37,156.07c-.9,4.82-2,2.5-2.75.15-16.44-54.37-68.76-94.12-130.75-94.12-61.81,0-114,39.51-130.61,93.63-.76,2.84-3.08,2.13-3.11,0-1.33-57.73-45.9-95.78-104-95.43-29.4.18-53.32,11.52-62.2,23.91-.72,1.07-2.49,1.42-2.49-1.08h0V0H813.55V194.78h0c0,29.25-17.87,69.92-60,69.92-38.6,0-57.19-22.12-57.19-65.64h0v-79.2H795V59.93H696.31V0H633.4V155.89h0c0,3.75-2.32,3.75-3.71.17-16.24-54.55-68.26-94.59-129.26-94.59-40.92,0-76.38,17.09-101.38,45.34-1,.93-1.75,0-1.57-1.22h0V59.93h0c-105.9,0-129.7,59.71-135.34,96.85-.49,3-3.53,2.86-4.19-.19A131.46,131.46,0,0,0,131.54,61.47c-25.13,0-48.61,10.59-68.61,29.16,0,0,0-90.63,0-90.63H0L.11,192.64h0a131.48,131.48,0,0,0,258.43,33.91c.61-1.63,1.68-1.45,1.68,0h0v90.25h62.91V193.35h0c0-61.74,36.06-71.69,63.28-73.22,1.78-.09,1.83.72,1.18,1.65a128.56,128.56,0,0,0-21.22,70.86c0,72.44,60,131.17,134.06,131.17,60.87,0,112.63-39.7,129-94.09.94-4.8,3.85-4.79,4.27,0,3.26,40.65,34.49,92.75,114.09,92.75,26.61,0,51.42-14.75,60.89-25.58,2.38-2.24,4.88-2.24,4.88,2h0v17.83h62.92V176.59h0c1.42-26.4,15-59.94,51.82-59.94,46.12,0,54,30.33,54,41.74h0V316.78h62.91V229.92h0c0-2.5,2.68-2.14,3-.7,16.5,54.29,68.77,94,130.71,94,61.78,0,112.24-36.18,123.16-93h0l-58.64,0h0c-12.07,26.29-36.43,44.26-64.52,44.26-33.46,0-61.63-25.67-70-60.35H1309.7V316.78h62.9V193.35h0c0-70.63,51.48-73.49,78.64-73.49h0V59.93h0c-105.23,0-131.84,59-138.87,96.14ZM128,266.54a73.66,73.66,0,1,1,73.81-73.65A73.73,73.73,0,0,1,128,266.54Zm371.12,0a73.66,73.66,0,1,1,73.8-73.65,73.73,73.73,0,0,1-73.8,73.65Zm678.24-104.17h-63.22c10.64-30.26,36.86-51.67,67.52-51.67s56.88,21.41,67.51,51.68h-71.81Z"/><path class="cls-1" d="M1412.59,297.08a12,12,0,1,0,3.53,8.49,11.55,11.55,0,0,0-3.53-8.49Zm-1.2,15.87a10.37,10.37,0,0,1-14.69,0,10.13,10.13,0,0,1-3-7.38,10.36,10.36,0,1,1,20.71,0,10.11,10.11,0,0,1-3,7.38Z"/><path class="cls-1" d="M1409.42,312a2.19,2.19,0,0,1-.12-.69c0-.35,0-.68,0-1h0v-1h0a3.62,3.62,0,0,0-.72-2,3.22,3.22,0,0,0-2.29-1.29,5.12,5.12,0,0,0,1.93-.64,2.89,2.89,0,0,0,1.29-2.61,3.28,3.28,0,0,0-2-3.35,10.31,10.31,0,0,0-3.61-.47h-4.64v13.21h2.34v-5.21h1.84a5.51,5.51,0,0,1,2.59.43c.83.49,1.25,1.5,1.25,3h0v1.05l0,.43h0l0,.14,0,.13h2.18l-.08-.16Zm-3.58-7a6.24,6.24,0,0,1-2.22.3h-2.1v-4.79h2a6,6,0,0,1,2.82.49,2.38,2.38,0,0,1-.48,4Z"/></g></g></svg>