<svg xmlns="http://www.w3.org/2000/svg" viewBox="0 0 1363.24 283.09"><defs><style>.cls-1{fill:#858b99;fill-rule:evenodd;}</style></defs><g id="Layer_2" data-name="Layer 2"><g id="Layer_1-2" data-name="Layer 1"><path class="cls-1" d="M107.46,201.46a125.27,125.27,0,0,0,106.42,59.79c65.82,0,102.06-56.81,102.06-56.81h0l4.67,15.13h0c-30.48,39.64-84.92,63.52-145.84,63.52-70.13,0-130.61-33.46-158.45-81.7A119.25,119.25,0,0,1,0,141.54C0,63.37,78.24,0,174.77,0c68.21,0,123.12,29.21,152,71.55h0L212.28,140.08,277.59,39.79h0C258.9,28,236,17,212.28,17,145.27,17,90.09,73,90.09,140a117.55,117.55,0,0,0,17.37,61.51Z"/><path class="cls-1" d="M413.89,201.42a46.06,46.06,0,1,0,91.59,6.9,46.92,46.92,0,0,0-.51-6.93,46.06,46.06,0,0,0-91.08,0Zm170.89,0,22.89,77.1H527.38l-15.79-52.8h0c-10.57,30.42-46.25,52.8-88.63,52.8-50.71,0-91.81-32-91.81-71.54,0-1.85.09-3.69.26-5.56,3.61-36.88,43.22-66,91.55-66,27.43,0,52.06,9.37,68.88,24.24h0L470,86.52H377.82s15.33-9.19,83.32-33.93,89.54,33.93,89.54,33.93h0l34.1,114.87Z"/><path class="cls-1" d="M841.49,201.39v77.1H758.87V109.09h0a22.57,22.57,0,0,0-43.6-8.19h0V278.49H634.18v-192H586.9s65.78-39.85,88.59-39.85c21.62,0,37.62,16.61,39.62,37.77,31.82-17.16,63.36-37.77,85.07-37.77a41.33,41.33,0,0,1,41.31,40.16h0V201.39Z"/><path class="cls-1" d="M968.76,201.39l11.49,38h0a29.87,29.87,0,0,0,30,29.32,30.41,30.41,0,0,0,30.41-30.4,31.53,31.53,0,0,0-.2-3.52h0l-9.78-33.4L996.4,84.08h0a30.42,30.42,0,0,0-30.23-27c-15.49,0-30.26,14.47-32.15,29.45h0l34.74,114.87Zm131.48,0a119.07,119.07,0,1,1,6-37.3,119,119,0,0,1-6,37.3Z"/><path class="cls-1" d="M1237,201.39v77.1h-81.08v-192h-45.35s63.84-39.85,86.66-39.85c21.62,0,37.62,16.61,39.62,37.77,31.82-17.16,63.36-37.77,85.07-37.77a41.32,41.32,0,0,1,41.3,40.16h0V278.49h-82.61V109.09h0A22.57,22.57,0,0,0,1237,100.9h0V201.39Z"/></g></g></svg>