<svg xmlns="http://www.w3.org/2000/svg" viewBox="0 0 505.13 156.39"><defs><style>.cls-1{fill:#858b99;fill-rule:evenodd;}</style></defs><g id="Layer_2" data-name="Layer 2"><g id="Vordergrund"><polygon class="cls-1" points="409.89 8.67 409.89 154.37 505.13 154.37 505.13 108.89 462.33 108.89 462.33 8.67 409.89 8.67"/><path class="cls-1" d="M475.26,26.52V11.32h-5.79V8.67h14.62v2.65h-5.88v15.2Zm10.8,0V8.67h4.36l4.48,14.25,4.38-14.25h4.31V26.52h-2.74v-15l-4.61,15h-2.69l-4.76-15.2v15.2Z"/><path class="cls-1" d="M66.55,55.26H53.38v54.81H68.2C72.67,110.07,91,105.59,91,84,91,56.21,72.2,55.26,66.55,55.26ZM188,76l-15.6-9.42,70.55-45.15L213.29,0l-75,48.68s-19.52-40-57.14-40H0v145.7H89.83c43,0,49.86-44.3,49.86-44.3l78.07,46.32,88.43-58.32v56.3h95.24V108.89h-42.8V8.67H306.19V54.79L230.7,102.07l-14.29-8.71,71.66-45.08L260.2,29.55Z"/></g></g></svg>