<svg xmlns="http://www.w3.org/2000/svg" viewBox="0 0 648.5 155.91"><defs><style>.cls-1{fill:#858b99;fill-rule:evenodd;}</style></defs><g id="Layer_2" data-name="Layer 2"><g id="Vector_Logo" data-name="Vector Logo"><path class="cls-1" d="M645.08,9.4A11.24,11.24,0,0,0,636.84,6a11.41,11.41,0,0,0-8,3.17,11.11,11.11,0,0,0-3.64,8.49,11.66,11.66,0,1,0,23.32,0,11.24,11.24,0,0,0-3.42-8.24Zm-1.46,15.11a9.18,9.18,0,0,1-6.78,2.85A9.29,9.29,0,0,1,630,24.53a9.42,9.42,0,0,1-2.83-6.89A9.32,9.32,0,0,1,630,10.89a9.46,9.46,0,0,1,13.65,0,9.33,9.33,0,0,1,2.8,6.75,9.45,9.45,0,0,1-2.82,6.87Z"/><polygon class="cls-1" points="107.79 5.94 107.79 28.93 28.43 28.93 28.43 63.16 97.65 63.16 97.65 86.64 28.43 86.64 28.43 128.31 107.65 128.31 107.65 150.38 0 150.38 0 5.94 107.79 5.94 107.79 5.94"/><path class="cls-1" d="M318,43.34c-2-11.33-7.68-20.11-29.75-20.62-14.47-.33-24.44,4.9-26.61,15.57-2.1,10.26,5,16.93,12.85,19.74,2.7,1,22.62,6.4,28.18,7.39,7.93,1.39,25.64,4.76,36.3,14.28,20.9,18.65,14.58,50.7-7.81,65.22-12.29,7.93-24.35,10.81-46.09,11-7.34.06-25.23-3.7-35.94-11.43-12.8-9.26-20-21.21-20.23-36h27.42c.69,6,3.22,11,8.12,16.19,8.15,8.66,19.45,8.49,29.37,8.09,9.91-.2,18.36-4.49,22.13-8.06,9.36-8.78,6.47-17.64-1.17-25.27-9.51-9.92-37.63-11.23-56.28-17.58-15.66-5.36-28-18.28-26.61-40.5C233.41,17.08,256.79,0,289.73,0c7.73,0,32.07,1,46.15,18.88,7.54,9.72,9.1,18,9.21,24.46Z"/><polygon class="cls-1" points="500.44 150.38 500.44 5.94 531.95 5.94 589.22 106.49 589.22 5.94 617.22 5.94 617.22 150.38 587.17 150.38 528.44 47.76 528.44 150.38 500.44 150.38 500.44 150.38"/><path class="cls-1" d="M214.32,17.22c-8.58-7.41-20.1-11.28-34.54-11.28H117.15V150.37H147V98.2h30.53q23.9,0,36.78-10.54t12.88-36q0-23.31-12.88-34.44Zm-22.78,51q-5.89,5.16-16.54,5.17H147V31.08h28q10.63,0,16.54,4.78t5.9,16q0,11.22-5.9,16.39Z"/><path class="cls-1" d="M473,18.49Q456.7,1.72,425.87,1.71T378.75,18.49Q356.9,38.31,356.89,77.81q0,38.73,21.86,59.31Q395,153.91,425.87,153.9T473,137.12q21.75-20.58,21.75-59.31,0-39.51-21.75-59.32Zm-18.78,96.78q-10.5,13.17-28.34,13.17t-28.49-13.17q-10.63-13.17-10.63-37.46t10.63-37.46Q408,27.17,425.87,27.17t28.34,13.22q10.49,13.23,10.48,37.42t-10.48,37.46Z"/><path class="cls-1" d="M642.2,23.77a3,3,0,0,1-.09-.38c0-.13,0-.26,0-.38V21.85A3.48,3.48,0,0,0,641,19a4.35,4.35,0,0,0-1.83-.75,4.11,4.11,0,0,0,2.23-.87,2.82,2.82,0,0,0,.91-2.35,3.25,3.25,0,0,0-1.72-3.09,6.2,6.2,0,0,0-2.55-.66l-2.66,0h-3.6V24.13h3.38V19.56h.71l.75.05a3.92,3.92,0,0,1,1.15.2,1.57,1.57,0,0,1,.95,1,5.5,5.5,0,0,1,.21,1.58,9.57,9.57,0,0,0,.2,1.79h3.23l-.11-.36Zm-3.92-7a3.2,3.2,0,0,1-1.85.47h-1.32V13.48h.82a5.68,5.68,0,0,1,2,.27,1.49,1.49,0,0,1,1,1.47,1.77,1.77,0,0,1-.66,1.54Z"/></g></g></svg>