<svg xmlns="http://www.w3.org/2000/svg" viewBox="0 0 1503.24 721.11"><defs><style>.cls-1{fill:#858b99;fill-rule:evenodd;}</style></defs><g id="Layer_2" data-name="Layer 2"><g id="Layer_1-2" data-name="Layer 1"><path class="cls-1" d="M19.71,559.76c0,19.73-17.35,30-17.35,30H98.12c-3.29,0-21.55-16.74-21.55-30.81V423.64h79.22s24,3.34,24,14.07V388.23H76.57V290.3H177.25c5.8,0,26.43,9.66,27.24,21.21.92,11.72,0-55.94,0-55.94H0s18.8,11.57,19.71,30.54,0,253.92,0,273.65Z"/><path class="cls-1" d="M529.47,255.57c3.25,0,21.42,13.49,20.49,30.85v325c0,7.32-9.76,79.82-52.86,109.61-.85.67,45.58-6.68,76.78-38,5-4.89,33.8-24.73,33.8-93.86,0-74.21-.7-283.78-.7-303.65,0-22.26,22.25-30,22.25-30Z"/><path class="cls-1" d="M243.44,286.32c.76-17.35-15.87-30.75-19.21-30.75h99.89s-21.05,12.48-21.05,29.93c0,11,.34,175.78.34,204.55,0,28.94,16.51,69.31,65,69.31,38.28,0,55.37-40.52,55.37-69.31,0-24.72-.59-185.78-.59-203.22.85-17.16-15.93-31.26-19.18-31.26h99.64s-20.82,11.27-20.82,28.52c0,11-.11,208-.11,208s-.55,37.43-21.95,61.95c-16.49,18.72-44.11,40-91.39,40.83-54.24.86-79.13-18.06-103-41.33-17.33-16.84-21.84-50.37-22.54-64.19-.57-27.27-.41-192.36-.41-203Z"/><path class="cls-1" d="M1243,286.32c.72-17.35-15.92-30.75-19.26-30.75h99.89s-21.08,12.48-21.08,29.93c0,11,.41,175.78.41,204.55,0,28.94,16.53,69.31,65,69.31,38.28,0,55.33-40.52,55.33-69.31,0-24.72-.51-185.78-.51-203.22.8-17.16-16-31.26-19.27-31.26h99.74s-20.83,11.27-20.83,28.52c0,11-.21,208-.21,208s-.45,37.43-21.9,61.95c-16.43,18.72-44.11,40-91.4,40.83-54.27.86-79.06-18.06-103-41.33-17.33-16.84-21.9-50.37-22.58-64.19-.54-27.27-.36-192.36-.36-203Z"/><path class="cls-1" d="M728.93,558.85c0,18.21,21.34,30.86,22.15,30.86H651.39s20.34-12.65,20.34-30.05c0-10.93.15-262.57.15-273.24,1-17.36-17.16-30.85-20.44-30.85h99.64s-22.15,12.74-22.15,30v273.3Z"/><path class="cls-1" d="M849.83,291.88c0,10.67.29,258,.29,269,0,17.37-21.09,28.85-21.09,28.85h99.54c-.75,0-20.43-12.75-20.43-30.9,0-10.73,1-266.13,1-266.13.06-2.33,37.93-1.82,48.87-1.51,7.65.11,23.12,4.55,25.84,23.72.81,5.87,20.49-59.32,20.49-59.32H772.48l-19.67,65.19s23.87-28.88,34.47-28.88c15.1.15,62.55,0,62.55,0Z"/><path class="cls-1" d="M1016.68,589.31l-18.21-63.38s28.15,33,77.62,35.46S1140.63,540,1145.54,535s30.9-38.74-9.07-63.48c-43.21-26.41-81.92-41.23-99.25-56.05s-42-47-32.05-93.22,60.14-65.86,80.66-69.09c21-3.25,76.2-2.54,97.74,5.71,1.4,2.52,0,51.08,0,51.08-1.18,3.23-8.27-23.82-59.48-24.74-51.31-.75-59.54,33.86-60.3,36.23-.87,2.53-14.92,38.84,25.39,59.43,40.51,20.64,80.37,33.48,109.77,70.11,33.84,42,3.78,96.51-5.43,107-13.85,15.74-54.63,39.66-98.41,39.66-59.26-.06-77.56-7.38-78.43-8.34Z"/><path class="cls-1" d="M792.53,92.33C794,131.07,768.85,186,700,187.17c-51,.72-75.71-38.9-81.55-45.38-5.68-6.61-18.16-31.26-49.46-32.07s-45.38,27.94-46.13,42.81,5.66,51.08,46.79,51.88c37.91,1,56.29-39.49,56.29-39.49v42S606,230.78,570.71,231.68c-35.57.8-77.59-29-76-80.82s53.62-70.12,77.51-69.25S616.79,94,634.94,118.78s42,44.66,76.8,37.89c21.09-4.14,52.56-20.65,52.56-66s-46.75-62-65-61.81c-12.09.1-28.07,3.29-46.24,20.54s-26.4,43.69-26.4,43.69V38S654.72.83,696.71,0s93.57,33,95.82,92.32Z"/></g></g></svg>