<svg xmlns="http://www.w3.org/2000/svg" viewBox="0 0 600.1 78.83"><defs><style>.cls-1{fill:#858b99;}</style></defs><g id="Layer_2" data-name="Layer 2"><g id="layer"><rect class="cls-1" x="89.5" y="0.73" width="20.7" height="77.5"/><path class="cls-1" d="M232.4.93h25.4l29.9,77.8H265l-5.8-16.6H230.1l-6.2,16.6H202.8L232.4.93M245,17h-.2l-10,30.3h19.5Z"/><path class="cls-1" d="M296.2.93h35.7c14.6,0,25.3,6.4,25.3,19.7,0,9.8-5,15.3-13.6,18.2v.3c10.4,2.1,15.7,7.7,15.7,17.2,0,18.6-16.3,22.5-30.3,22.5H296.3V.93M316.9,64H323c7.5,0,15.4-1.1,15.4-9,0-8.5-8.1-9.3-15.2-9.3h-6.3V64m0-32.3h5.8c6.8,0,13.7-1.7,13.7-8.3,0-7.1-6.6-7.8-13.5-7.8h-6Z"/><polyline class="cls-1" points="388 49.43 359.1 0.93 383 0.93 398.3 32.23 413.3 0.93 437.2 0.93 408.7 49.43 408.7 78.73 388 78.73 388 49.43"/><polyline class="cls-1" points="462.2 16.33 443 16.33 443 0.93 502.1 0.93 502.1 16.33 482.9 16.33 482.9 78.73 462.2 78.73 462.2 16.33"/><polyline class="cls-1" points="511 0.93 565.9 0.93 565.9 15.73 531.7 15.73 531.7 31.73 564 31.73 564 46.43 531.7 46.43 531.7 64.03 567.1 64.03 567.1 78.73 511 78.73 511 0.93"/><path class="cls-1" d="M43.3,16.63C29.6,17.73,22,26.83,22,38.53c0,11.4,10.6,21,20.7,21h6a2.42,2.42,0,0,0,2.5-2.4V32.73H72.5c0,13.7-.1,44.7-.1,44.7H39.3A39.32,39.32,0,0,1,0,38.63,38.64,38.64,0,0,1,40,0l31.7.1v16.6H43.3"/><path class="cls-1" d="M165,16.63c-13.8,1.1-21.3,10.2-21.3,21.9,0,11.4,10.5,21,20.8,21h5.9a2.42,2.42,0,0,0,2.5-2.4V32.73h21.2v44.7H161a39.23,39.23,0,0,1-39.2-38.8A38.58,38.58,0,0,1,161.8,0h31.6v16.6H165"/><polyline class="cls-1" points="579.6 3.33 575.9 3.33 575.9 1.83 585.2 1.83 585.2 3.33 581.4 3.33 581.4 13.83 579.6 13.83 579.6 3.33"/><polyline class="cls-1" points="586.9 1.83 589.7 1.83 593.5 11.83 597.2 1.83 600.1 1.83 600.1 13.83 598.3 13.83 598.3 3.43 598.3 3.43 594.3 13.83 592.6 13.83 588.7 3.43 588.6 3.43 588.6 13.83 586.9 13.83 586.9 1.83"/></g></g></svg>