<svg xmlns="http://www.w3.org/2000/svg" viewBox="0 0 528.99 85.65"><defs><style>.cls-1{fill:#858b99;}</style></defs><g id="Layer_2" data-name="Layer 2"><g id="Layer_1-2" data-name="Layer 1"><path class="cls-1" d="M0,84V2.61H20.53V34.72h44V2.61H86.25V84H64.8V48.24H20.53V84Z"/><path class="cls-1" d="M124.61,84H104.08V2.61h20.53Z"/><path class="cls-1" d="M132.51,2.61H220.6V16.13H187.74V84H166.29V16.13H132.51Z"/><path class="cls-1" d="M202.3,84,240,2.61h26.56L304.57,84H281.14l-7.5-17.24H233.29L226.41,84ZM268.93,53.2,253.72,16.66,238.14,53.2Z"/><path class="cls-1" d="M404.38,84V2.61h21.45V34.72h44V2.61h20.82V84H470.1V48.24H425.83V84Z"/><path class="cls-1" d="M529,84H508.46V2.61H529Z"/><path class="cls-1" d="M370.39,29.89c.14-8.56-5-16.58-22.06-16.66-22.11-.1-24.11,19.49-24.19,30.05C324,66,333.69,72.73,349.56,73c15.56.3,21-9.62,20.83-18.19h22.89c-1,20.4-14.87,30.56-43.72,30.81-34.44.3-49.23-18.59-49.23-42.37S314.81.08,348.64,0c23.95,0,42.71,9.5,43.72,29.89Z"/></g></g></svg>