<svg xmlns="http://www.w3.org/2000/svg" viewBox="0 0 777 301.43"><defs><style>.cls-1{fill:#858b99;}</style></defs><g id="Layer_2" data-name="Layer 2"><g id="desaturated_logo" data-name="desaturated logo"><rect class="cls-1" y="4.2" width="56.24" height="56.24"/><path class="cls-1" d="M54.84,297.23V94.67H1.6V297.23Zm353.88,2V249.59a123.9,123.9,0,0,1-19.22-1.2c-5.6-.8-9.81-2.8-12.61-5.6s-4.6-6.81-5.6-12a129.73,129.73,0,0,1-1.2-19.62V140.31h38.63V94.67H370.09V15.61H316.64v196c0,16.62,1.41,30.63,4.21,41.84,2.8,11,7.6,20,14.21,26.82s15.41,11.61,26,14.61c10.81,3,24.42,4.4,40.63,4.4Zm305.83-2V0H661.11V297.23ZM265.2,114.49c-14.81-16-35.62-24-62-24a78.18,78.18,0,0,0-35,7.81,74.88,74.88,0,0,0-26.42,21.61l-3,3.81v-29H86.07V297.23h53V193.15c.6-19,5.2-33,14-42,9.41-9.61,20.81-14.41,33.82-14.41,15.42,0,27.23,4.8,35,14,7.61,9.2,11.61,22.21,11.61,38.83h0v.4h0V297h53.84V182.14C287.62,153.32,280,130.5,265.2,114.49Zm368.29,81.06a111.43,111.43,0,0,0-7.61-41,109.93,109.93,0,0,0-21.41-33.43,97.63,97.63,0,0,0-33-22.41c-12.81-5.41-27-8-42.43-8a105.18,105.18,0,0,0-41.23,8.21,107.85,107.85,0,0,0-33.43,22.41,104.51,104.51,0,0,0-22.42,33.43,101.89,101.89,0,0,0-8.2,41.23,108.81,108.81,0,0,0,7.8,41.23,103,103,0,0,0,21.82,33.43A100,100,0,0,0,487.18,293a110.61,110.61,0,0,0,43.43,8.4c45.23,0,73.26-20.61,90.07-39.83l-38.43-29.22C574.24,242,555,255,531,255c-15,0-27.42-3.41-36.83-10.41-9.41-6.81-15.81-16.41-19.21-28.22l-.6-1.8H633.49v-19ZM474.77,176.94c0-14.81,17-40.63,53.64-40.83,36.63,0,53.84,25.82,53.84,40.63Z"/><path class="cls-1" d="M775.4,270.81A19.77,19.77,0,0,0,765,260.4a19.92,19.92,0,0,0-7.61-1.6,19.79,19.79,0,0,0-18,12,19.91,19.91,0,0,0-1.6,7.6,19.79,19.79,0,0,0,12,18,19.91,19.91,0,0,0,7.6,1.6,19.79,19.79,0,0,0,18-12,18.87,18.87,0,0,0,0-15.21Zm-3.2,14a15.28,15.28,0,0,1-8.61,8.61,16.6,16.6,0,0,1-6.41,1.2,17.32,17.32,0,0,1-6.4-1.2,15.28,15.28,0,0,1-8.61-8.61,16.6,16.6,0,0,1-1.2-6.41,17.32,17.32,0,0,1,1.2-6.4,15.28,15.28,0,0,1,8.61-8.61,16.58,16.58,0,0,1,6.4-1.2,17.34,17.34,0,0,1,6.41,1.2A15.28,15.28,0,0,1,772.2,272a16.58,16.58,0,0,1,1.2,6.4A13.58,13.58,0,0,1,772.2,284.82ZM761,280a6.15,6.15,0,0,0,3.8-1.81,5.89,5.89,0,0,0,1.6-4.4,6.08,6.08,0,0,0-2-5c-1.2-1.2-3.4-1.8-6-1.8h-8.81v22.61h4.2v-9.2h3l5.61,9.2h4.4Zm-2.2-3.21h-5v-6.4h5a5.84,5.84,0,0,1,1.8.4,2,2,0,0,1,1.2,1,4.25,4.25,0,0,1,0,3.6,5.3,5.3,0,0,1-1.2,1A5.84,5.84,0,0,1,758.79,276.81Z"/></g></g></svg>