<svg xmlns="http://www.w3.org/2000/svg" viewBox="0 0 543.28 112.14"><defs><style>.cls-1{fill:#858b99;}</style></defs><g id="Layer_2" data-name="Layer 2"><g id="Layer_1-2" data-name="Layer 1"><g id="layer1"><g id="g23944"><g id="g13605"><path id="path13607" class="cls-1" d="M227.7,24.05c-9.81,0-21,4.55-27.78,13.65h0V25.48H176.53v85.21h23.39V62.2c0-8.72,6.77-18,19.29-18,9.68,0,19.7,6.74,19.7,18v48.49h23.4V57.87c0-19.6-14-33.82-34.61-33.82"/></g><g id="g13609"><path id="path13611" class="cls-1" d="M428.6,25.49l-21.15,58-21.15-58H359.57l35.06,85.17h25.63l35.06-85.17Z"/></g><g id="g13613"><path id="path13615" class="cls-1" d="M106.68,51.15c4-5.35,10.33-8.49,18-8.49,8.43,0,14.83,4.82,18.14,11.93l-40.88,17c-1.12-8.7,1.11-15.51,4.75-20.39m44.95,33.34c-9.85,7.29-15.48,9-24.46,9-8.08,0-14.41-2.51-18.86-6.91l59.81-24.82c-1.31-9.24-4.81-17.5-10.22-23.79-7.85-9.12-19.49-13.95-33.65-13.95-25.73,0-45.13,19-45.13,44,0,25.72,19.45,44.05,47.71,44.05,15.83,0,32-7.51,39.59-16.28Z"/></g><g id="g13617"><path id="path13619" class="cls-1" d="M76.89,89.2H23.72V0H0V110.69H76.89Z"/></g><g id="g13621"><path id="path13623" class="cls-1" d="M497.33,44.1c-13.06,0-22.55,9.9-22.55,24,0,13.44,10.05,24,22.87,24,13.07,0,22.55-10.17,22.55-24,0-13.45-10-24-22.87-24m0,68c-25.58,0-45.63-19.06-45.63-44,0-24.7,20.18-44,45.95-44,25.59,0,45.63,19.06,45.63,44,0,24.68-20.18,44-45.95,44"/></g><g id="g13625"><path id="path13627" class="cls-1" d="M317.2,44.1c-13.07,0-22.55,9.9-22.55,24,0,13.44,10,24,22.86,24,13.07,0,22.55-10.17,22.55-24,0-13.45-10-24-22.86-24m0,68c-25.59,0-45.64-19.06-45.64-44,0-24.7,20.19-44,45.95-44,25.59,0,45.64,19.06,45.64,44,0,24.68-20.19,44-45.95,44"/></g></g></g></g></g></svg>