<svg xmlns="http://www.w3.org/2000/svg" viewBox="0 0 768 158.44"><defs><style>.cls-1{fill:#858b99;}.cls-2{fill:#aab2c1;}.cls-3{fill:#6d727a;}.cls-4{fill:#9aa1af;}</style></defs><g id="Layer_2" data-name="Layer 2"><g id="Layer_1-2" data-name="Layer 1"><path class="cls-1" d="M768,62.85l-28,25.5L768,114v14.77h-.92L725.5,91V126.9h-12V18.28h12V86.13l41.39-37.67H768ZM224.42,126.9h61.51V114.77H237V21.85H224.42Zm104-78.29c-18.9,0-36.09,15.35-36.09,40.07,0,24,15.77,39.93,38.36,39.93,10.09,0,19.46-2.54,27.85-8.65V107c-8.81,7.38-18.63,10.51-27.44,10.51-13.61,0-25.62-8.42-26.73-24.19h57.44c.14-1.56.44-4.92.44-6.2,0-25.29-15.22-38.51-33.83-38.51m.12,11c10.66,0,21.5,6.9,21.93,23.24H304.4c.71-12.65,10.39-23.24,24.17-23.24m202.27-11c-10.22,0-17.61,5.41-22,13.36-3.7-8.52-10.52-13.36-21.46-13.36-9.52,0-16.62,5.55-20.46,12.93h-.29l-1.41-11.36h-9.52V126.9h12.22V78.45c0-9.38,5.82-18.18,16.47-18.18,10.38,0,14.93,6.11,14.93,17.19V126.9h12.21V77.6c0-8.95,6-17.33,16.35-17.33s15,6.11,15,17.19V126.9h12.22V75.75c0-16-7.53-27.14-24.3-27.14m73.65,0c-18.33,0-35.38,15.49-35.38,40.07,0,24.3,17,39.93,35.38,39.93,11.51,0,22.31-5.4,28.13-16.06h.15l1.42,14.35h9.94V50.18h-9.94l-1.42,14.35h-.15C626.8,54,616,48.61,604.49,48.61M606.77,60c14.48,0,25.43,11.65,25.43,28.56s-11,28.56-25.43,28.56c-14.22,0-25.43-11.51-25.43-28.42,0-17.19,11.21-28.7,25.43-28.7m89.46-10.66c-6.69,0-16.77,3.13-22,13.08h-.14l-1.28-12.22H663V126.9h12.21V82.72c0-17.76,14.35-23.27,26.15-20.85V49.75a27.86,27.86,0,0,0-5.11-.43M440,48.46h-1l-32.07,32-32-32h-1V64L398.6,88.63l-24.66,24.52v15.62h1l31.84-32.12L439,128.77h1V113L415.07,88.4,440,63.34ZM746,19.36V18.28h8.53v1.08h-3.63V28h-1.28V19.36Zm12.85-1.08,3.68,8.13,3.7-8.13H768V28h-1.22v-8h0L763.11,28H762l-3.65-8h0V28h-1.21V18.28Z"/><polygon class="cls-1" points="158.44 127.43 158.44 0 127.43 0 79.22 48.21 158.44 127.43"/><polygon class="cls-2" points="0 31.01 0 158.44 31.01 158.44 79.22 110.23 0 31.01"/><polygon class="cls-3" points="31.01 158.44 158.44 158.44 158.44 127.42 110.23 79.22 31.01 158.44"/><polygon class="cls-4" points="127.43 0 0 0 0 31.01 48.2 79.22 127.43 0"/></g></g></svg>