<svg xmlns="http://www.w3.org/2000/svg" viewBox="0 0 1378.73 203.45"><defs><style>.cls-1{fill:#858b99;fill-rule:evenodd;}</style></defs><g id="Layer_2" data-name="Layer 2"><g id="Layer_1-2" data-name="Layer 1"><path class="cls-1" d="M330.11,58.29h51l2.24,16.81c3.93-13.45,29.71-23,45.4-23,36.43,0,51,22.42,51,61.65V198.4h-56.6V122.74c0-15.13-2.81-26.34-17.94-26.34-14,0-21.3,15.13-21.3,25.78V198.4h-53.8V58.29Z"/><path class="cls-1" d="M0,199V.56H94.72C151.32.56,177.1,28,177.1,67.82c0,42.59-23.53,71.73-82.38,71.73H62.77V199ZM88,91.35c15.13,0,31.39-3.36,31.39-20.73C119.38,52.68,102,48.76,88,48.76H62.77V91.35Z"/><path class="cls-1" d="M953.34,58.29h51.56l1.69,16.81c4.48-13.45,30.26-23,45.95-23,35.87,0,51,22.42,51,61.65V199h-56.61V122.74c0-15.13-3.36-26.34-18.49-26.34-13.46,0-20.74,15.13-20.74,25.78V199H953.34V58.29Z"/><path class="cls-1" d="M693.29,148.52c0,5.61,2.8,14,6.17,16.82,3.92,2.8,9,5.6,15.13,5.6,10.08,0,17.93-2.8,17.93-12.33.56-23.54-85.19-2.8-85.19-58.85,0-39.23,30.27-48.2,61.65-48.2s74.54,6.17,72.86,48.76H734.2c0-3.92-1.68-6.72-3.92-10.09-3.36-3.92-7.29-5.6-14.57-6.16-9.53-.56-18.5,1.12-18.5,8.41.56,21.85,88.56,7.28,88.56,58.84,0,35.87-25.23,52.13-74,52.13-30.82-.56-69.49-16.26-69.49-54.93Z"/><path class="cls-1" d="M1273.37,112.65a18.94,18.94,0,0,0-4.49-13.45c-2.24-2.8-7.29-9-15.13-9-21.3,0-26.9,20.74-26.9,37.56,0,19.61,9,35.87,25.78,35.87,14.57,0,21.86-13.46,21.86-24.67h49.32c1.12,29.15-19.06,63.9-73.42,63.9-44.28,0-75.67-30.83-75.67-75.66,0-54.37,40.36-75.11,75.11-75.11,47.07,0,74,28.59,73.42,60.53Z"/><path class="cls-1" d="M270.14,199l-5.6-11.77c-10.65,9-21.86,14-39.8,14-17.37-.56-51.56-2.81-51.56-40.36,0-61.65,91.92-33.62,91.92-63.89,0-10.09-11.21-9.53-17.38-9.53-11.21,0-18.49,2.24-20.17,19.06H180.47c0-29.15,9-53.81,70.62-53.81,60,0,66.13,31.39,66.13,62.22v63.89c0,8.4.56,12.33,6.17,18.49v1.12l-53.25.56Zm-4.48-64.45c-19.06,9-43.16,8.41-43.72,22.42,0,9,5.05,13.45,16.26,13.45,18.49,0,28.58-19.06,27.46-35.87ZM586.24,199l-5.6-11.77c-10.65,9-22.42,14-39.8,14-17.93-.56-52.12-2.81-52.12-40.36,0-61.65,91.92-33.62,92.48-63.89,0-10.09-11.77-9.53-17.38-9.53-11.77,0-18.49,2.24-20.17,19.06H496.57c0-29.15,8.4-53.81,70.62-53.81,59.4,0,65.57,31.39,65.57,62.22v63.89c0,8.4.56,12.33,6.16,18.49v1.12l-52.68.56Zm-4.48-64.45c-19.06,9-43.72,8.41-43.72,22.42,0,9,4.48,13.45,16.25,13.45,17.94,0,28.59-19.06,27.47-35.87Z"/><path class="cls-1" d="M1165.76,199V58.29h-52.13V199ZM1113.63,40.35h52.13V0h-52.13V40.35Z"/><path class="cls-1" d="M869.27,53.24c46.52,0,75.11,32.51,75.11,75.11,0,43.15-28.59,75.1-75.11,75.1s-75.66-31.95-75.66-75.1c0-42.6,29.15-75.11,75.66-75.11Zm-24.66,75.11c0,17.37,5.61,38.67,24.66,39.23,19.06,0,24.1-21.86,24.1-39.23,0-16.82-5-38.68-24.1-38.68s-24.1,21.86-24.66,38.68Z"/><path class="cls-1" d="M1356.87,171.5c3.37,0,8.41.56,8.41-3.92,0-3.92-3.36-4.48-6.16-4.48h-6.73v8.4ZM1368.08,185h-3.36L1358,173.74h-5.61V185h-2.8v-24.1h10.09c4.5,0,8.5,1.35,8.5,6.73,0,4.48-2.9,6.16-7.38,6.16l7.28,11.21Zm8.13-11.49a18.78,18.78,0,1,0-18.5,18.5,18.79,18.79,0,0,0,18.5-18.5Zm-40.07-.28a21.3,21.3,0,1,1,21.29,21.3,21.27,21.27,0,0,1-21.29-21.3Z"/></g></g></svg>