<svg xmlns="http://www.w3.org/2000/svg" viewBox="0 0 399.81 73.31"><defs><style>.cls-1{fill:#858b99;}</style></defs><g id="Layer_2" data-name="Layer 2"><g id="Layer_1-2" data-name="Layer 1"><path class="cls-1" d="M40.6,27.08C40.6,36.21,36.19,42.4,25,42.4H21.47V13.32c1.26-.07,2.43-.07,3.54-.07,10.58,0,15.59,5,15.59,13.83m-11.48,28c20,0,32.66-10.3,32.66-28.26C61.78,7.06,48.25,0,26.18,0A242.51,242.51,0,0,0,0,1.47V71.84H21.47V55.05Zm287.72-28c0,9.13-4.41,15.32-15.59,15.32h-3.52V13.32c1.24-.07,2.42-.07,3.52-.07,10.59,0,15.59,5,15.59,13.83m-11.46,28c20,0,32.64-10.3,32.64-28.26C338,7.06,324.49,0,302.43,0a242.85,242.85,0,0,0-26.19,1.47V71.84h21.49V55.05ZM366,19.43c0-3.83,3.83-5.6,10-5.6a53.81,53.81,0,0,1,19.13,3.55L393.33,2.06A83.88,83.88,0,0,0,373.62,0C356.26,0,344.5,6.85,344.5,21.2,344.5,45.93,378,40.93,378,52.41c0,4.41-3.24,6.76-11.19,6.76-7.05,0-17.94-2.35-24.41-5.59l2.36,16.2c6.46,2.35,15.29,3.53,22.35,3.53,18,0,32.66-5.89,32.66-23.56,0-23.54-33.84-19.13-33.84-30.32m-105.9-18H238.59V71.84h21.48ZM173,1.47H151.51V71.84H173ZM210.35,57.7V1.47H188.87V71.84h38.84l3.23-14.14ZM135.62,1.47H114.15v28H91.79v-28H70.31V71.84H91.79V44.16h22.36V71.84h21.47Z"/></g></g></svg>