<svg xmlns="http://www.w3.org/2000/svg" viewBox="0 0 1360.76 199.22"><defs><style>.cls-1{fill:#858b99;fill-rule:evenodd;}</style></defs><g id="Layer_2" data-name="Layer 2"><g id="Layer_1-2" data-name="Layer 1"><path class="cls-1" d="M746.18,92.51s-13.24-8.19-21.43-11.35c0,0-25.34-11.74-30.37-17.33,0,0-9.87-9.31-4.09-20.12,0,0,2.41-7.07,12.85-7.07,0,0,13.59.75,13.59,11.91V64.31h48.69l-.09-23.21s3.75-38-57.35-39.66c0,0-48.05-3.16-61.83,22.72,0,0-5.41,5.77-5.41,25.88V64.57s-.55,16.77,8,27.56c0,0,4.84,7.08,16.77,14.9,0,0,24.21,13,38.73,20.5,0,0,14.67,8.37,12.74,21.69,0,0-1.19,13.68-15.35,13.12,0,0-13-.59-13-14V132.6H636.8v22.87s-1.46,43.75,65.22,43.75c0,0,63.7,1.29,66.67-44.9V135.71s2.25-28.3-22.51-43.2Z"/><polygon class="cls-1" points="496.89 6.88 480.59 109.06 476.77 109.06 461.2 7.8 379.86 7.8 375.79 192.82 423.95 192.82 424.52 53.41 428.31 53.41 453.84 192.79 504.5 192.79 529.72 53.46 533.07 53.46 534.23 192.82 582.64 192.82 577.43 6.88 496.89 6.88 496.89 6.88"/><polygon class="cls-1" points="210.22 7.65 178.18 192.61 230.02 192.61 249 49.2 253.26 49.2 272.24 192.61 324.07 192.61 292.04 7.65 210.22 7.65 210.22 7.65"/><path class="cls-1" d="M1298.06,90v27.29h13.29v29.29c0,14.31-12.23,14.58-12.23,14.58-14.88,0-14.32-13.6-14.32-13.6V46.21c0-10.44,13.2-11,13.2-11,12.68,0,12.77,12.45,12.77,12.45v15.4h48.81c1.59-30.06-4.4-37.34-4.4-37.34C1343.07-1.47,1297.27,0,1297.27,0c-70.4,0-62.59,54-62.59,54v98c1.51,50.65,70.87,45.51,72,45.45,30.86-3.42,40.17-13.21,40.17-13.21A30,30,0,0,0,1357.69,169c2.44-5.14,3.07-21.51,3.07-21.51V90Z"/><polygon class="cls-1" points="1136.26 120.07 1134.14 120.07 1084.59 6.92 1025.34 6.92 1025.34 192.85 1073.57 192.85 1070.68 79.72 1072.83 79.72 1124.15 192.85 1181.63 192.85 1181.63 6.91 1132.79 6.91 1136.26 120.07 1136.26 120.07"/><path class="cls-1" d="M907.59,146.52s.7,15.26-13.44,15.26c0,0-14.89.8-14.89-14.88L879.11,7H826.2V145.79s-5.42,52.51,68.68,52.51c0,0,64.41.77,64.41-50.11V7h-51.7V146.52Z"/><path class="cls-1" d="M109.36,92.51S96.14,84.32,87.94,81.16c0,0-25.32-11.73-30.35-17.33,0,0-9.87-9.32-4.09-20.11,0,0,2.41-7.07,12.84-7.07,0,0,13.59.74,13.59,11.9V64.31h48.72l-.1-23.21s3.72-38-57.36-39.66a108.86,108.86,0,0,0-11.35,0s-37,2-50.23,22.29c-.07.14-.18.26-.26.39S4,29.93,4,50V64.57s-.56,16.76,8,27.56c0,0,4.83,7.08,16.76,14.9,0,0,24.2,13,38.73,20.49,0,0,14.68,8.37,12.74,21.7,0,0-1.19,13.68-15.35,13.12,0,0-12.95-.59-12.95-14V132.59H0v22.88s-1.45,43.75,65.22,43.75c0,0,63.69,1.29,66.68-44.9v-18.6s2.23-28.31-22.54-43.21Z"/></g></g></svg>