<svg xmlns="http://www.w3.org/2000/svg" viewBox="0 0 528.24 128.41"><defs><style>.cls-1{fill:#858b99;}</style></defs><g id="Layer_2" data-name="Layer 2"><g id="Layer_1-2" data-name="Layer 1"><path class="cls-1" d="M49.77,2.65a36.45,36.45,0,0,1,5-2.65c.66,1.66,1.66,3.32,2.32,5-3.65,2-7.3,3.65-10.62,6A107.19,107.19,0,0,0,21.24,31.52C15.59,38.16,11,46.12,10,55.08c-.33,5.31.67,11,4,15.26a20.05,20.05,0,0,0,12.27,7,36.79,36.79,0,0,0,15.93-1c10.29-2.66,19.58-7.64,28.53-12.95C76,60.06,81.29,56.74,85.61,52.09a11,11,0,0,0,3-7,5.19,5.19,0,0,0-3-4.65,9.22,9.22,0,0,0-6-1,41.42,41.42,0,0,0-8,3.32c-7.63,4-14.27,9.29-21.9,13.28-4.64,2.32-9.62,4.64-14.93,4.64a10.71,10.71,0,0,1-8.63-4,8.74,8.74,0,0,1-2-7,21.18,21.18,0,0,1,4.32-11c4.31-6,10.28-10.28,16.59-13.93A120.8,120.8,0,0,1,79.63,9,67.82,67.82,0,0,1,99.54,6.64a50.21,50.21,0,0,1,27.21,9C136,22.23,143,32.85,143.67,44.46c1,9.62-2,19.25-6.3,27.87a77.35,77.35,0,0,1-12.94,17.92,142.61,142.61,0,0,1-12.61,12,143,143,0,0,1-18.25,13.27,144,144,0,0,1-20.24,10.28A49.33,49.33,0,0,1,67,128.41c-1.32-6-3.31-12-4.64-17.92,5.64-2.65,11.28-5,16.92-8a128.7,128.7,0,0,0,17.92-12A125.52,125.52,0,0,0,111.16,78c7.29-7.63,13.27-17.58,14.59-28.2a33.94,33.94,0,0,0-.66-11.61A31.46,31.46,0,0,0,109.5,19.24a37.16,37.16,0,0,0-20.58-4c-10.28.67-19.9,4.65-28.86,9.29-4.32,2.33-8.3,4.65-12.28,7.3a38.17,38.17,0,0,0-10.62,8.63,9.46,9.46,0,0,0-2.32,5.64,3.61,3.61,0,0,0,2.32,3.32c2.32,1,5,0,7.3-1,10.95-5.31,20.24-13.6,31.86-17.58,5.64-2,12.27-2.32,17.91,0a16,16,0,0,1,9.29,11.28,18.59,18.59,0,0,1-.66,8.63,32.4,32.4,0,0,1-7.63,11.28A78.84,78.84,0,0,1,82,72.33c-6.64,3.65-12.94,8-19.91,11a127.09,127.09,0,0,1-18.92,6.64,45.87,45.87,0,0,1-22.23.66C13.6,88.92,7.63,84.94,4.31,79.3A29.16,29.16,0,0,1,0,63.71,49,49,0,0,1,4.31,45.46,77.34,77.34,0,0,1,24.22,20.24,138.79,138.79,0,0,1,50.1,2.32Z"/><path class="cls-1" d="M126.09,42.47v6A18.12,18.12,0,0,0,126.09,42.47Zm68,24.88c-2.32-2.65-5.64-3.65-8.63-4.31-2.65-1-5.31-1.66-7-3.65a5.72,5.72,0,0,1,1.33-7.63c3.65-2.32,9.29-1.66,11.95,2a51.24,51.24,0,0,0,4.31-4c-1.66-1.66-3.65-3.32-6-3.65-4.32-1-9-1-12.94,1.33l.33.66a10.22,10.22,0,0,0-5,7.63c0,2.66.33,5.64,2,7.63,2,2.66,5,4,8,5,2.65.66,5.64,1.33,7.63,3.32a5.35,5.35,0,0,1-1,7.63c-4,3.32-10.62,2-13.6-2.32a41.07,41.07,0,0,0-4.32,3.65c2.33,3.31,6.31,5,10.29,5.31a16.33,16.33,0,0,0,9.62-2,10.31,10.31,0,0,0,5.31-8C196.76,73,196.43,69.68,194.11,67.35Zm160.59-4v5H363V79a23.11,23.11,0,0,1-11.61,1.66,14.72,14.72,0,0,1-9.63-6.31c-4-6-3.32-15.26,2.33-20.24,5.3-5.31,14.59-4.64,19.9.33,1.33-1.32,2.33-2.65,3.65-4-2.32-2.65-5.64-4-9.29-4.64a21.16,21.16,0,0,0-14.26,1.66l.33.33a18.59,18.59,0,0,0-10.29,13.93,21.08,21.08,0,0,0,3.32,15.93,17.89,17.89,0,0,0,13.94,8A31.65,31.65,0,0,0,367,83c.66-.33,1.33-.66,1.33-1.33V63.37ZM233.59,79.3a18.83,18.83,0,0,1-4.31,0c-.33-4,0-8,0-12H247.2v-5H229.28V51.1h19.58v-5H224V84.28h25.55v-5Zm60.72-33.18h-4.64c-5.31,12.61-11.28,25.55-16.59,38.16h6c1.33-3,2.32-6.31,3.65-9.29h17.92c1.33,3,2.65,6.3,4,9.29a36.06,36.06,0,0,0,6,0C305.26,71.34,299.62,58.73,294.31,46.12Zm-9.62,24.22c2.32-5.64,4.65-11.61,7.3-17.25,2.32,5.64,4.65,11.61,7,17.25ZM414.76,46.12h-4.31c-5.64,12.61-11.28,25.55-16.93,38.16a36.18,36.18,0,0,0,6,0c1.32-3,2.32-6.31,3.65-9.29h17.91c1.33,3,2.33,6.3,4,9.29a36.06,36.06,0,0,0,6,0C425.71,71.34,420.07,58.73,414.76,46.12Zm-9.62,24.22c2.32-5.64,4.64-11.61,7.3-17.25,2.32,5.64,4.64,11.61,7,17.25ZM447,46.12v5h12.27V84.28h5.31V51.1h12.28v-5ZM508,79.3v-12h18.25v-5H508V51.1h19.24v-5H502.69V84.28h25.55v-5Z"/></g></g></svg>