<svg xmlns="http://www.w3.org/2000/svg" viewBox="0 0 1280.36 189.63"><defs><style>.cls-1{fill:#858b99;fill-rule:evenodd;}</style></defs><g id="Layer_2" data-name="Layer 2"><g id="Layer_1-2" data-name="Layer 1"><polygon class="cls-1" points="108.11 188.23 57.97 188.23 57.97 44.54 0 44.54 0 1.4 169.16 1.4 169.16 44.54 108.11 44.54 108.11 188.23 108.11 188.23 108.11 188.23"/><path class="cls-1" d="M192.87,50.7C200.44,6.72,239.65.28,277.18.28c64.42,0,87.11,16,87.11,83.47,0,69.18-1.68,105.88-85.71,105.88-33.33,0-73.1-2.52-84.31-40.9-3.64-12.6-3.92-25.77-3.92-38.93h0V96.07h0c0-14.84,0-30.53,2.52-45.37Zm48.74,55.74c0,26.33.56,40.33,31.65,40.33,34.17,0,39.49-8.4,39.49-40.33,0-9,.28-18.21.28-27.17,0-24.93-3.92-36.13-30.81-36.13-39.21,0-39.77,3.92-40.61,52.09h0v11.21Z"/><path class="cls-1" d="M510.75,59.66c0-19-6.73-21.56-24.65-21.56h-5c-13.17,0-27.17.56-27.17,17.08,0,11.48,3.36,16.8,15.4,17.65C512.71,76.47,564,67.78,564,128c0,16,0,36.13-13.16,47.33-15.41,12.89-36.69,14-56.3,14H482.18c-51.54,0-78.43-2.24-78.43-61.63h47.62c0,14,3.36,22.41,19,22.41H492c12.61,0,22.69-1.68,22.69-18.48,0-16.53-9.8-16.53-23.81-17.37C436.8,110.64,404,115.68,404,53.5,404,21,416.92,3.92,450.25,1.4,461.17.56,472.09,0,483,0c43.41,0,75.62.84,75.62,53.78,0,2-.28,3.92-.28,5.88H510.75Z"/><polygon class="cls-1" points="768.33 188.23 718.2 188.23 718.2 114.84 653.22 114.84 653.22 188.23 603.08 188.23 603.08 1.4 653.22 1.4 653.22 71.98 718.2 71.98 718.2 1.4 768.33 1.4 768.33 188.23 768.33 188.23 768.33 188.23"/><polygon class="cls-1" points="866.24 188.23 816.1 188.23 816.1 1.4 866.24 1.4 866.24 188.23 866.24 188.23 866.24 188.23"/><path class="cls-1" d="M914.32,1.4H1016c33.9,0,55.74,9.24,55.74,47.62,0,21.56-2,38.93-29.13,43.41h0v1.68h0c25.21,2.24,32.21,15.69,32.21,40.34,0,42-14,53.78-58,53.78H914.32V1.4Zm82.07,74.79c13.72-.56,25.77,1.12,25.77-16,0-13.44-3.64-17.65-17.09-17.65H964.46V76.19Zm1.4,70.86c15.69,0,27.17-.28,27.17-18.48,0-17.37-8.12-17.93-23.81-17.93H964.46v36.41Z"/><path class="cls-1" d="M1229.38,188.23h51L1223.5,1.4h-75.91l-56,186.83h52.09l10.68-37.53h64.21l10.82,37.53Zm-64.74-73.66,21.61-75.91,21.89,75.91Z"/></g></g></svg>