<svg xmlns="http://www.w3.org/2000/svg" viewBox="0 0 1137.24 312.08"><defs><style>.cls-1{fill:#858b99;fill-rule:evenodd;}</style></defs><g id="Layer_2" data-name="Layer 2"><g id="Layer_1-2" data-name="Layer 1"><path class="cls-1" d="M487.31,0h-455A32.35,32.35,0,0,0,0,32.35V271.67A32.34,32.34,0,0,0,32.34,304h455a32.35,32.35,0,0,0,32.35-32.34V32.35A32.36,32.36,0,0,0,487.31,0ZM252.55,70.4h46.67l-11.87,34.5-45.78,0ZM173,70.4h35.69l3.63,34.46H154.79Zm-84.66-.58H135l-5.19,35-45.37,0ZM188.74,230.51l-9.58-95.18-47,95.18H70.53l13-117.29,44.81,1.57-8.24,55.56,29-54.82,64.56,2.26,5.91,56,17.58-55.19,44.88,1.58-38,110.31ZM454.1,150.45c-15,45-63.62,80.06-108,80.06H257.83l36.62-109.88,59.42,2.09-21.72,64.1c9.16.74,11.39,0,17.83-.28,25.09-1.18,47.14-18.28,54.68-40.86,7.44-22.21-3.37-40.17-25.33-40.75l-79.63,0,11.49-34.5h88.27C444.05,70.4,469.09,105.43,454.1,150.45Z"/><polygon class="cls-1" points="621.55 25.28 649.65 25.28 669.87 112.44 670.19 112.44 688.82 25.28 712.57 25.28 683.04 141.18 655.43 141.18 634.56 52.89 634.24 52.89 611.77 141.18 583.51 141.18 555.26 25.28 580.95 25.28 598.77 112.44 599.08 112.44 621.55 25.28 621.55 25.28"/><path class="cls-1" d="M730.64,107.31c0,10.44,1.44,20.22,13.79,20.22,8.35,0,12.52-3,14.78-10.43h21.66c-2.08,19.9-17.65,26.49-36.44,26.49-27.6,0-38.68-15.57-38.68-42.54,0-24.24,14.13-42.86,38.68-42.86,15.1,0,27.62,5.14,34.36,19.27a44,44,0,0,1,4,14.43,121.89,121.89,0,0,1,.64,15.42Zm27.92-16c0-8.83-2.41-17-14.13-17-11.07,0-13.48,8.19-13.79,17Z"/><path class="cls-1" d="M835.77,82.11c-.32-5.46-5.45-7.87-10.91-7.87-6.58,0-9.63,1.93-9.63,7.22,0,12.69,46.07,5.46,46.07,35.64,0,17.65-21.51,26.49-36.44,26.49-18.77,0-35.15-7.39-35.47-25.84H811.7c.49,6.25,6.09,9.78,13.16,9.78,6.59,0,11.56-2.72,11.56-9,0-6.42-11.56-9.15-16.37-10.28-15.41-3.69-29.7-7.06-29.7-25.84,0-16.86,20.38-24.24,34.51-24.24,17,0,31.46,6.11,32.58,23.92Z"/><path class="cls-1" d="M871.74,60.6V44.71L895.81,36V60.6H914V76.65H895.81v37.4c0,10.59,1.6,13.48,10,13.48,2.57,0,5.14-.32,7.71-.47v14.12c-2.73,1.28-15.58,2.41-19,2.41-18.77,0-22.78-9.79-22.78-27.29V76.65h-8.86V60.6Z"/><path class="cls-1" d="M941.39,107.31c0,10.44,1.45,20.22,13.81,20.22,8.35,0,12.52-3,14.76-10.43h21.68C989.55,137,974,143.59,955.2,143.59c-27.61,0-38.68-15.57-38.68-42.54,0-24.24,14.12-42.86,38.68-42.86,15.09,0,27.61,5.14,34.35,19.27a43.72,43.72,0,0,1,4,14.43,120,120,0,0,1,.65,15.42Zm27.94-16c0-8.83-2.41-17-14.13-17-11.08,0-13.48,8.19-13.81,17Z"/><path class="cls-1" d="M1043.41,81c-4,.31-9.31,2.56-11.72,5.93-2.57,4.5-3,9-3.21,14.29v40h-23.91l-.17-64.53c0-3.37-.47-10.11-.79-16.05h22l.48,14.6h.33c5.13-12.68,15.41-15.88,27.45-15.57L1043.41,81Z"/><path class="cls-1" d="M1084.11,69.91l.33.48c5-7.38,12.51-12.2,24.71-12.2,8,0,23.59,5.94,26.49,17.66a55.31,55.31,0,0,1,1.6,12.84v52.49h-24.08V92.7c-.16-8.66-2.56-18.46-14.44-18.46-7.55,0-14.13,6.75-14.45,18.46v48.48h-24.08V60.6h23.92v9.31Z"/><path class="cls-1" d="M564.1,164.4h39.48c36.11-.32,58.59,17.65,58.59,57.95s-22.48,58.26-58.59,57.94H564.1V164.4ZM589,261h12.84c29.53.33,33.87-20.21,33.87-38.67s-4.34-39-33.87-38.69H589V261Z"/><path class="cls-1" d="M698,164.4v20.7H672.28V164.4Zm-.81,35.31v80.58H673.09V199.71Z"/><path class="cls-1" d="M787.37,273.07c0,18.77-4.16,39.32-39.48,39-17.82,0-36.92-4.33-37.39-26h22.78c.33,7.23,6.75,9.95,13.33,9.95,18.3,0,17.66-16.69,16.69-28.41H763c-5,7.87-13.48,11.08-22.63,11.08-21.83,0-33.07-20.56-33.07-40.13,0-20.55,11.72-41.26,34.19-41.26,10.76,0,17.66,3.53,21.51,11.73h.32v-9.32h24.07v73.36Zm-39.64-10.44c13.16,0,15.57-13.47,15.57-23.91,0-11.88-2.41-25.37-15.57-25.37s-15.57,13.49-15.57,25.37c0,10.44,2.41,23.91,15.57,23.91Z"/><path class="cls-1" d="M826.61,164.4v20.7H800.93V164.4Zm-.8,35.31v80.58H801.73V199.71Z"/><path class="cls-1" d="M843.3,199.71V183.82l24.08-8.67v24.56h18.14v16H867.38v37.4c0,10.6,1.61,13.48,10,13.48,2.57,0,5.14-.32,7.7-.48v14.13c-2.72,1.29-15.56,2.41-18.93,2.41-18.78,0-22.8-9.8-22.8-27.29V215.76h-9.53v-16Z"/><path class="cls-1" d="M894.83,222.51c.15-10.12,4.49-16.38,10.91-20.07,6.58-3.85,15.09-5.14,23.76-5.14,16.21,0,34.34,5.95,34.34,30.18v44a73.54,73.54,0,0,0,1.13,8.83H943.3a85.31,85.31,0,0,1-.8-10.75h-.32c-5.46,9.3-13.8,13.16-24.73,13.16-15.08,0-26.32-8.67-26.32-24.4a28,28,0,0,1,17.18-25.52c9.63-4.18,21.83-4.66,31.46-4.34V220.9c0-3.37-2.57-10-11.08-10-8.34,0-11.07,7.86-10.75,11.56Zm19.41,32.58c0,6.74,5,11.55,11.72,11.55,13.32,0,13.81-14.76,13.81-24.23-8.35-.15-25.53-.32-25.53,12.68Z"/><polygon class="cls-1" points="1002.89 164.4 1002.89 280.29 978.82 280.29 978.82 164.4 1002.89 164.4 1002.89 164.4"/><path class="cls-1" d="M1015.14,177.93a17.48,17.48,0,1,1,17.52,17.52,17.45,17.45,0,0,1-17.52-17.52Zm31.87,0a14.4,14.4,0,1,0-14.35,14.45A14.37,14.37,0,0,0,1047,177.93ZM1029,179.09V188h-3.21V167.43h6.64c3.76,0,7.67,1,7.67,5.67a4.73,4.73,0,0,1-4.18,4.78v.1c2.83.56,3.15,1.81,3.48,4a28.69,28.69,0,0,0,1.21,5.95h-4.09c-.23-1.17-.55-2.47-.7-3.68-.23-1.76-.23-3.39-1.16-4.36s-1.86-.74-3-.84Zm3.38-3.2c3-.1,3.72-1.35,3.72-2.93s-.7-2.32-3.25-2.32H1029v5.25Z"/></g></g></svg>