<svg xmlns="http://www.w3.org/2000/svg" viewBox="0 0 1448.15 384.63"><defs><style>.cls-1{fill:#858b99;fill-rule:evenodd;}</style></defs><g id="Layer_2" data-name="Layer 2"><g id="Layer_1-2" data-name="Layer 1"><polygon class="cls-1" points="166.31 172.18 281.29 381.35 213.51 381.16 132.15 230.92 45.42 381.46 0 381.46 113.38 194.28 16.07 7.63 79.66 7.63 146.04 132.71 217.99 7.49 255.72 7.49 166.31 172.18 166.31 172.18 166.31 172.18"/><polygon class="cls-1" points="521.6 33.22 354.7 33.38 354.75 172.27 521.63 172.27 521.63 202.23 354.84 202.23 354.97 349.67 520.93 350.72 521.04 381.21 298.06 381.27 298.09 7.38 521.28 7.46 521.6 33.22 521.6 33.22 521.6 33.22"/><path class="cls-1" d="M715.53,5.88c21.31,3.85,47.17,5.59,61.14,26.9,21.66,27.95,14.68,67.78,12.58,102.37-3.49,22-16.77,45.07-38.78,55.2-11.88,6.29-26.9,5.59-40.18,9.44h0l1.05,4.89,98.87,175.38H743.83L627.49,171.84h0c31.09-4.2,69.18,10.48,93.63-12.58,16.77-23.06,13.63-57.3,12.58-84.55C731.6,60,727.06,44.31,712,37c-31.45-4.55-68.13-1.75-102.37-2.45h0L607.92,37l-.7,343.08H547.83l.7-374.88,167,.7Z"/><path class="cls-1" d="M1180.73,7.45l74.59,130.15L1327.21,7.45l38,0-91.36,166.17,108.31,207.18v1.75h-65.69l-82.1-156.87-.7-.7h0c-14.67,24.46-75.81,130.32-92.23,157.57h0l-43-1.05L1214.88,185.9,1115.83,7.45Z"/><path class="cls-1" d="M1101.25,52c31.44,54.85,23.75,125.08,22.36,191.11-4.55,43.32-6.64,92.23-48.57,118.44-48.56,30.39-124,25.5-180.28,15-37.73-8.38-69.87-44.72-76.16-82.1-7.69-73.37-8.39-153,6.64-223.26,5.58-25.5,29-47.86,52-59.39C936-5.3,1008-4.25,1064.21,17.76c15,6.64,26.91,21.31,37,34.24ZM997.13,29.29c-33.89-2.1-72.67-5.94-98.18,16.77-30.74,38.43-24.1,93.63-28.29,143.59,1.69,14.83-12.84,113.07,32.49,150.93,32.49,19.57,80,17.82,115.64,6.64,43.33-19.91,39.48-70.92,44.72-110.75-.62-64.2,10.87-132-21-182.72-12.58-14.33-28.3-20.62-45.42-24.46Z"/><path class="cls-1" d="M1415.35,5.81a32.79,32.79,0,1,1-32.79,32.79,32.84,32.84,0,0,1,32.79-32.79Zm.09,60.67c15.08,0,26.44-12.17,26.44-27.88s-11.36-27.89-26.44-27.89c-15.26,0-26.61,12.17-26.61,27.89s11.35,27.88,26.61,27.88Zm-12.62-47.14h14.71c8.81,0,13.18,3.54,13.18,10.81,0,6.18-3.91,10.63-9.91,10.63h0l10.9,17h-6.63l-10.72-17h-5.26v17h-6.27V19.34Zm6.27,16.53h7.44c4.82,0,7.91-1,7.91-6,0-4.36-3.91-5.64-7.91-5.64h-7.44V35.87Z"/></g></g></svg>