<svg xmlns="http://www.w3.org/2000/svg" viewBox="0 0 902.34 193.56"><defs><style>.cls-1{font-size:184.08px;font-family:Ubuntu-Medium, Ubuntu;font-weight:500;}.cls-2{letter-spacing:-0.02em;}.cls-3,.cls-5{fill:none;}.cls-3{letter-spacing:-0.01em;}.cls-4{fill:#075be2;}.cls-6{fill:#e50c0c;}</style></defs><g id="Layer_2" data-name="Layer 2"><g id="logo"><g id="bold_blue_soft" data-name="bold blue soft"><text class="cls-1" transform="translate(0 155.82)"><tspan class="cls-2">P</tspan><tspan class="cls-3" x="111.37" y="0">o</tspan><tspan x="219.42" y="0">wer</tspan><tspan class="cls-4" x="542.29" y="0">S</tspan><tspan class="cls-5" x="641.69" y="0">o</tspan><tspan class="cls-4" x="751.77" y="0">ft</tspan></text><path class="cls-6" d="M167.72,156.23A49.35,49.35,0,0,1,139,66.72a7.79,7.79,0,0,1,10.87,1.81c2.51,3.5,3,9.32-.46,11.82-6.53,5.72-13.88,15.81-13.88,26.69,0,18.62,13.53,31.17,32.15,31.17s31.74-13.07,31.74-31.69c0-10.87-4.18-20-13-26.3-3.5-2.51-3.39-8.19-.89-11.69a7.8,7.8,0,0,1,10.87-1.81,49.35,49.35,0,0,1-28.68,89.51Z"/><path class="cls-6" d="M167.72,104.67a7.79,7.79,0,0,1-7.79-7.79V52.73a7.8,7.8,0,1,1,15.59,0V96.88A7.8,7.8,0,0,1,167.72,104.67Z"/><path class="cls-4" d="M710.35,62.11a49.37,49.37,0,1,0,40.17,40.18A49.41,49.41,0,0,0,710.35,62.11ZM701,137.72c-10.94-.39-26.33-9.41-26.15-27.54.15-14.77,12.84-26.95,26.9-26.95,18,0,27.34,15.52,27.34,26.89A27.09,27.09,0,0,1,701,137.72Z"/></g></g></g></svg>