<svg xmlns="http://www.w3.org/2000/svg" viewBox="0 0 883.57 147.12"><defs><style>.cls-1{fill:#fff;}.cls-2{fill:#075be2;}.cls-3{fill:#e50c0c;}</style></defs><g id="Layer_2" data-name="Layer 2"><g id="logo"><g id="white_shape" data-name="white shape"><path class="cls-1" d="M36.08,14q27.8,0,42.61,10.12T93.51,55.78q0,11.22-4,19.23a33.21,33.21,0,0,1-11.5,13.07,53.37,53.37,0,0,1-18.41,7.46,116.47,116.47,0,0,1-24.85,2.39H23.19v44.91H0V17.12a116,116,0,0,1,18-2.49Q27.79,14,36.08,14Zm1.66,20.06q-8.84,0-14.55.56V78.05H34.42q16.76,0,25.77-4.7t9-17.76A21.11,21.11,0,0,0,66.82,45.1a17.24,17.24,0,0,0-6.63-6.63,31.09,31.09,0,0,0-10-3.4A71.7,71.7,0,0,0,37.74,34.05Z"/><path class="cls-1" d="M275.84,82.28q-4.23,16.2-9.11,31.57t-9.65,29H238.79q-3.67-8.46-7.74-19.32t-8.11-23.2Q218.88,88,214.82,74.37t-7.93-27.8h23.58q1.67,7.74,3.88,16.66T239,81.45q2.42,9.3,5,18.14t5.18,16.19q2.76-8.46,5.44-17.48t5.07-18q2.4-9,4.53-17.58T268,46.57h17.12q1.65,7.55,3.67,16.11t4.31,17.58q2.3,9,5,18t5.42,17.48q2.4-7.35,5-16.19t5.09-18.14q2.5-9.28,4.72-18.22t3.89-16.66h23q-3.87,14.18-7.93,27.8t-8.11,25.95Q325,112.65,321,123.52t-7.93,19.32H295q-4.79-13.62-9.84-29T275.84,82.28Z"/><path class="cls-1" d="M356.56,95.17a60.46,60.46,0,0,1,3.77-22.28,47,47,0,0,1,10-15.92,41.59,41.59,0,0,1,14.36-9.57,44.41,44.41,0,0,1,16.57-3.22q19.88,0,31,12.33t11.13,36.82c0,1.22,0,2.61-.09,4.14s-.16,2.91-.28,4.14h-63.5q.92,11.6,8.19,18t21.08,6.35a69.41,69.41,0,0,0,14.81-1.47,62.31,62.31,0,0,0,10.59-3.13l2.94,18.22a33.87,33.87,0,0,1-5.06,1.93,69.84,69.84,0,0,1-7.36,1.84q-4.14.84-8.93,1.38a84.6,84.6,0,0,1-9.76.56q-12.69,0-22.08-3.78A41.07,41.07,0,0,1,368.52,131a43,43,0,0,1-9-15.83A64.76,64.76,0,0,1,356.56,95.17Zm64.61-9.94a29.31,29.31,0,0,0-1.29-8.75,21.28,21.28,0,0,0-3.77-7.18A17.92,17.92,0,0,0,410,64.52a19.28,19.28,0,0,0-8.56-1.75,19.94,19.94,0,0,0-9,1.93,20.61,20.61,0,0,0-6.53,5.07,23.08,23.08,0,0,0-4.14,7.17,38.76,38.76,0,0,0-2,8.29Z"/><path class="cls-1" d="M521.86,66.64a70.51,70.51,0,0,0-7.64-1.94,56.58,56.58,0,0,0-11.32-1,44.79,44.79,0,0,0-7.82.74,45.9,45.9,0,0,0-5.8,1.29v77.12H467V51.17a125.08,125.08,0,0,1,16.11-4.51,100.5,100.5,0,0,1,21.45-2.11c1.47,0,3.18.09,5.15.27s3.93.43,5.89.74,3.87.67,5.71,1.1,3.31.83,4.41,1.2Z"/><path class="cls-2" d="M573.22,125.54q12.51,0,18.22-4.23c3.8-2.83,5.71-6.81,5.71-12a15.41,15.41,0,0,0-1.94-7.91,20.28,20.28,0,0,0-5.52-6,47.16,47.16,0,0,0-8.74-5q-5.16-2.3-11.78-4.51-6.63-2.38-12.8-5.24a42.89,42.89,0,0,1-10.86-7.09A32.68,32.68,0,0,1,538,63.51a32.34,32.34,0,0,1-2.85-14.18q0-17.3,12-27.15t32.58-9.85A77.18,77.18,0,0,1,600.92,15a65.57,65.57,0,0,1,14.63,5.8l-7.18,18.78a55.09,55.09,0,0,0-13.71-5.34,63.78,63.78,0,0,0-15.37-1.84q-9.39,0-14.63,3.86a12.71,12.71,0,0,0-5.25,10.86,14.26,14.26,0,0,0,1.75,7.27,17.75,17.75,0,0,0,5,5.43,42.93,42.93,0,0,0,7.55,4.42q4.32,2,9.48,3.87,9,3.31,16.1,6.72a45.72,45.72,0,0,1,12,8.1,31.74,31.74,0,0,1,7.45,11,40.84,40.84,0,0,1,2.58,15.37q0,17.31-12.24,26.78t-35.8,9.48a94.05,94.05,0,0,1-14.45-1,91.74,91.74,0,0,1-11.6-2.48,78.49,78.49,0,0,1-8.74-3,53.57,53.57,0,0,1-5.9-2.85l6.82-19a78.53,78.53,0,0,0,13.43,5.52A66.44,66.44,0,0,0,573.22,125.54Z"/><path class="cls-2" d="M789.87,0a60.07,60.07,0,0,1,13.62,1.38,76.61,76.61,0,0,1,8.84,2.49l-4.23,18.4a35.32,35.32,0,0,0-7.28-2.39A41.26,41.26,0,0,0,791.9,19a23.11,23.11,0,0,0-9,1.56A14.78,14.78,0,0,0,777,24.85a16.45,16.45,0,0,0-3.13,6.72,37.39,37.39,0,0,0-.92,8.56v6.44h35V65.16h-35v77.68H750.66V39.76q0-18.58,9.76-29.18T789.87,0Z"/><path class="cls-2" d="M823.19,21.17l22.27-3.68V46.57H879.7V65.16H845.46v39.21q0,11.59,3.68,16.57t12.52,5a40.77,40.77,0,0,0,10.77-1.29,75.63,75.63,0,0,0,7.46-2.39l3.68,17.67a83.87,83.87,0,0,1-10.13,3.4,54.86,54.86,0,0,1-14.72,1.75q-10.32,0-17.22-2.76a25.36,25.36,0,0,1-11-8,31.61,31.61,0,0,1-5.7-12.7,78.49,78.49,0,0,1-1.66-17Z"/><path class="cls-3" d="M152.45,143.25a49.35,49.35,0,0,1-28.68-89.51,7.8,7.8,0,0,1,10.87,1.81c2.5,3.5,3,9.32-.47,11.83-6.53,5.71-13.88,15.81-13.88,26.68,0,18.62,13.54,31.17,32.16,31.17s31.74-13.07,31.74-31.69c0-10.87-4.19-20-13.05-26.3-3.5-2.5-3.39-8.19-.89-11.69a7.8,7.8,0,0,1,10.87-1.81,49.35,49.35,0,0,1-28.67,89.51Z"/><path class="cls-3" d="M152.45,91.69a7.79,7.79,0,0,1-7.8-7.79V39.75a7.8,7.8,0,0,1,15.59,0V83.9A7.79,7.79,0,0,1,152.45,91.69Z"/><path class="cls-2" d="M695.07,49.13a49.37,49.37,0,1,0,40.17,40.18A49.41,49.41,0,0,0,695.07,49.13Zm-9.4,75.61c-10.94-.39-26.32-9.41-26.15-27.54.15-14.77,12.84-26.95,26.9-26.95,18.05,0,27.34,15.53,27.34,26.89A27.09,27.09,0,0,1,685.67,124.74Z"/></g></g></g></svg>