<svg id="Layer_1" enable-background="new 0 0 510 510" height="512" viewBox="0 0 510 510" width="512" xmlns="http://www.w3.org/2000/svg"><g><path d="m411.319 452.398-23.717-23.717 8.681-32.398-130.343-152.523-152.223-130.043-32.398 8.682-23.717-23.717 8.681-32.398-15.075-26.534-24.848-13.39c-16.286 16.288-26.36 38.788-26.36 63.64 0 49.705 40.294 90 90 90 8.061 0 15.872-1.066 23.307-3.054 6.244 6.244 219.086 219.085 219.747 219.747-1.988 7.435-3.054 15.247-3.054 23.307 0 49.705 40.294 90 90 90 24.852 0 47.352-10.073 63.64-26.36l-11.64-24.848-28.283-15.075z" fill="#e8f1fd"/><path d="m420 330c-8.061 0-15.872 1.066-23.307 3.054-3.633-3.633-212.062-212.062-219.747-219.747 1.988-7.435 3.054-15.245 3.054-23.307 0-49.705-40.294-90-90-90-24.853 0-47.353 10.073-63.64 26.36l39.922 39.923 32.398-8.682 23.717 23.718-8.681 32.398 282.565 282.566 32.398-8.682 23.717 23.718-8.681 32.397 39.922 39.923c16.289-16.286 26.363-38.786 26.363-63.639 0-49.705-40.294-90-90-90z" fill="#cfdbfd"/><path d="m408.795 58.176 49.407-49.406c-33.453-15.98-74.731-10.122-102.439 17.587-23.553 23.553-31.308 56.909-23.292 86.931l-219.171 219.773c-30.022-8.016-63.379-.262-86.932 23.292-27.708 27.708-33.566 68.986-17.587 102.439l49.407-49.406 31.82 10.606 175.992-153.992 153.402-176.004z" fill="#b3c7ef"/><path d="m451.222 100.602-31.82-10.605-329.394 329.995 10.607 31.819-49.407 49.407c33.453 15.979 74.731 10.121 102.439-17.587 23.553-23.554 31.308-56.909 23.292-86.933l219.169-219.771c30.022 8.016 63.379.261 86.932-23.293 27.708-27.708 33.566-68.986 17.587-102.439z" fill="#97b1db"/></g></svg>