<svg id="Capa_1" enable-background="new 0 0 497 497" height="512" viewBox="0 0 497 497" width="512" xmlns="http://www.w3.org/2000/svg"><g><path d="m178.17 55.34v166.39h-158.137c-4.619 0-8.363-3.744-8.363-8.363v-158.027z" fill="#eaf6ff"/><path d="m178.17 55.34v166.39h-109.02c9.58 0 17.34-7.76 17.34-17.34v-149.05z" fill="#c8effe"/><path d="m485.33 55.34v158.022c0 4.616-3.742 8.358-8.358 8.358h-158.152v-166.38z" fill="#eaf6ff"/><path d="m485.33 55.34v158.022c0 4.616-3.742 8.358-8.358 8.358h-35.812c9.9 0 17.92-8.02 17.92-17.92v-148.46z" fill="#c8effe"/><path d="m178.17 24.92v30.42h-166.5v-22.057c0-4.619 3.744-8.363 8.363-8.363z" fill="#99e6fc"/><path d="m178.17 24.92v30.42h-91.68v-12.6c0-9.84-7.98-17.82-17.82-17.82z" fill="#62dbfb"/><path d="m485.33 33.278v22.062h-166.51v-30.42h158.152c4.616 0 8.358 3.742 8.358 8.358z" fill="#99e6fc"/><path d="m485.33 33.278v22.062h-26.25v-16.55c0-7.66-6.21-13.87-13.87-13.87h31.762c4.616 0 8.358 3.742 8.358 8.358z" fill="#62dbfb"/><path d="m375.83 8.518v46.822l-129.113 4.827-129.107-4.827v-46.822c0-4.705 3.814-8.518 8.518-8.518h241.183c4.705 0 8.519 3.814 8.519 8.518z" fill="#5986cb"/><path d="m375.83 8.518v46.822h-32.98v-34.62c0-11.44-9.27-20.72-20.71-20.72h45.172c4.704 0 8.518 3.814 8.518 8.518z" fill="#4278c3"/><path d="m375.83 55.34v220.122c0 4.705-3.814 8.518-8.518 8.518h-241.184c-4.705 0-8.518-3.814-8.518-8.518v-220.122z" fill="#eaf6ff"/><path d="m375.83 55.34v220.122c0 4.705-3.814 8.518-8.518 8.518h-47.202c12.56 0 22.74-10.19 22.74-22.75v-205.89z" fill="#c8effe"/><path d="m313.152 178.648v14.407c0 8.148-6.612 14.76-14.76 14.76h-99.802c-8.148 0-14.76-6.612-14.76-14.76v-14.407c0-8.159 6.612-14.771 14.76-14.771h99.802c8.148 0 14.76 6.612 14.76 14.771z" fill="#ffd064"/><path d="m313.15 178.65v14.41c0 8.14-6.61 14.76-14.76 14.76h-25.83c8.15 0 14.77-6.62 14.77-14.76v-14.41c0-8.16-6.62-14.77-14.77-14.77h25.83c8.15 0 14.76 6.61 14.76 14.77z" fill="#ffc250"/><path d="m354.449 301.539-9.253-35.646c-2.23-8.578-9.962-14.559-18.823-14.559h-.307c-4.571 0-8.775 1.572-12.09 4.212-3.202 2.537-5.578 6.07-6.68 10.126-.009.031-.023.057-.032.088-.021.078-.035.158-.055.237-.057.226-.109.453-.158.682-.034.16-.069.319-.099.48-.045.238-.083.478-.118.719-.023.155-.049.31-.068.466-.033.265-.057.533-.079.802-.011.135-.027.267-.035.403-.025.399-.039.8-.04 1.205v.016-7.388c0-3.62-1.007-6.995-2.729-9.896-.804-1.354-1.755-2.609-2.852-3.725-.04-.04-.074-.085-.114-.125-3.518-3.517-8.377-5.691-13.743-5.691h-3.067c-10.74 0-19.437 8.697-19.438 19.436v-11.362c0-6.328-3.037-11.933-7.717-15.485-3.263-2.475-7.318-3.962-11.729-3.962h-3.05-.001-.008c-10.387 0-18.84 8.151-19.385 18.402-.019.348-.053.692-.053 1.044v8.244c0-.002 0-.003 0-.005 0-.487-.024-.969-.06-1.448v-94.928c0-10.725-8.695-19.42-19.42-19.42-10.726 0-19.421 8.695-19.421 19.421v96.869 43.129c0-4.193-1.34-8.064-3.597-11.237-3.519-4.947-9.285-8.183-15.823-8.183-9.868 0-18.173 7.391-19.301 17.191l-9.86 85.38c-.246 2.126-.358 4.251-.34 6.362.079 9.501 2.782 18.742 7.721 26.726.549.887 1.125 1.759 1.729 2.613 1.118 1.584 2.34 3.103 3.641 4.563 1.507 1.691 3.125 3.299 4.867 4.797l26.657 22.95 4.306 3.707v30.67c0 4.187 3.394 7.581 7.581 7.581h133.675c4.187 0 7.581-3.394 7.581-7.581v-30.67l20.967-74.675c7.569-26.956 7.851-55.434.82-82.535z" fill="#ffcebf"/><path d="m353.63 384.07-20.97 74.68v30.669c0 4.187-3.394 7.581-7.581 7.581h-24.579c4.638-2.133 7.61-6.771 7.61-11.876v-26.374l20.97-74.68c7.57-26.95 7.85-55.43.82-82.53l-9.26-35.65c-1.09-4.19-3.49-7.76-6.7-10.31.01-.01.03-.02.04-.03 3.31-2.64 7.51-4.22 12.09-4.22h.3c8.86 0 16.6 5.98 18.83 14.56l9.25 35.65c7.03 27.1 6.75 55.58-.82 82.53z" fill="#ffb09e"/><path d="m183.825 304.404v49.648c0 5.861-7.318 8.59-11.109 4.119-4.377-5.163-8.38-12.746-8.38-23.217v-29.528c0-7.57-4.759-14.32-11.885-16.857 3.425-2.682 7.766-4.217 12.436-4.104 10.624.258 18.938 9.312 18.938 19.939z" fill="#ffb09e"/><path d="m210.945 118.988h-49.464c-2.694 0-4.878-2.184-4.878-4.878v-24.498c0-2.694 2.184-4.878 4.878-4.878h49.464c2.694 0 4.878 2.184 4.878 4.878v24.498c.001 2.694-2.183 4.878-4.878 4.878z" fill="#5986cb"/><g><path d="m290.201 35.536h-86.969c-4.143 0-7.5-3.358-7.5-7.5s3.357-7.5 7.5-7.5h86.969c4.143 0 7.5 3.358 7.5 7.5s-3.357 7.5-7.5 7.5z" fill="#61a2f9"/></g><g><path d="m450.41 117.227h-44.553c-4.143 0-7.5-3.358-7.5-7.5s3.357-7.5 7.5-7.5h44.553c4.143 0 7.5 3.358 7.5 7.5s-3.357 7.5-7.5 7.5z" fill="#62dbfb"/></g><g><path d="m450.41 149.491h-44.553c-4.143 0-7.5-3.358-7.5-7.5s3.357-7.5 7.5-7.5h44.553c4.143 0 7.5 3.358 7.5 7.5s-3.357 7.5-7.5 7.5z" fill="#62dbfb"/></g><g><path d="m86.491 117.227h-44.552c-4.143 0-7.5-3.358-7.5-7.5s3.357-7.5 7.5-7.5h44.552c4.143 0 7.5 3.358 7.5 7.5s-3.357 7.5-7.5 7.5z" fill="#62dbfb"/></g><g><path d="m86.491 149.491h-44.552c-4.143 0-7.5-3.358-7.5-7.5s3.357-7.5 7.5-7.5h44.552c4.143 0 7.5 3.358 7.5 7.5s-3.357 7.5-7.5 7.5z" fill="#62dbfb"/></g><g><path d="m332.659 109.361h-79.564c-4.143 0-7.5-3.358-7.5-7.5s3.357-7.5 7.5-7.5h79.564c4.143 0 7.5 3.358 7.5 7.5s-3.357 7.5-7.5 7.5z" fill="#61a2f9"/></g></g></svg>