<?xml version="1.0" encoding="utf-8"?>
<!-- Generator: Adobe Illustrator 25.0.0, SVG Export Plug-In . SVG Version: 6.00 Build 0)  -->
<svg version="1.1" id="Layer_1" xmlns="http://www.w3.org/2000/svg" xmlns:xlink="http://www.w3.org/1999/xlink" x="0px" y="0px"
	 viewBox="0 0 32 40" style="enable-background:new 0 0 32 40;" xml:space="preserve">
<style type="text/css">
	.st0{fill:#EFDE07;}
	.st1{fill:#073151;}
</style>
<g>
	<path class="st0" d="M16,13.2l2.4-4.8c0.1-0.2,0-0.4-0.3-0.4h-1.1c-0.2,0-0.4-0.2-0.3-0.4l0.9-1.9c0.1-0.1,0-0.3-0.1-0.4l-1.3-0.6
		c-0.1-0.1-0.3,0-0.4,0.1l-2.4,4.8c-0.1,0.2,0,0.4,0.3,0.4h1.1c0.2,0,0.4,0.2,0.3,0.4l-0.9,1.9c-0.1,0.1,0,0.3,0.1,0.4l1.3,0.6
		C15.8,13.4,16,13.3,16,13.2z"/>
	<path class="st1" d="M23,2H9C6.8,2,6,3.8,6,5v22c0,2.2,1.8,3,3,3h14c2.2,0,3-1.8,3-3V5C26,2.8,24.2,2,23,2z M9,4h14
		c0.2,0,0.4,0,0.5,0.1C21.2,10.1,17.9,16,16,16s-5.2-5.9-7.5-11.9C8.6,4,8.8,4,9,4z M24,27c0,0.5-0.2,1-1,1H9c-0.5,0-1-0.2-1-1V8.2
		c1.9,4.4,5,9.8,8,9.8c3,0,6.1-5.5,8-9.8V27z"/>
	<path class="st1" d="M12.5,22h7.1c0.3,0,0.5-0.2,0.5-0.5v-1.1c0-0.3-0.2-0.5-0.5-0.5h-7.1c-0.3,0-0.5,0.2-0.5,0.5v1.1
		C12,21.8,12.2,22,12.5,22z"/>
	<path class="st1" d="M10.5,26h11.1c0.3,0,0.5-0.2,0.5-0.5v-1.1c0-0.3-0.2-0.5-0.5-0.5H10.5c-0.3,0-0.5,0.2-0.5,0.5v1.1
		C10,25.8,10.2,26,10.5,26z"/>
</g>
</svg>
